# xmcd
#
# Track frame offsets:
# 150
# 11978
# 21825
# 37248
# 49725
# 60763
# 71955
# 86838
# 99845
# 123738
# 151750
# 173138
# 193363
# 217358
# 240863
#
# Disc length: 3423 seconds
#
# Revision: 0
# Processed by: cddbd v1.4PL0 Copyright (c) Steve Scherf et al.
# Submitted via: Axialis_AX_CDPlayer 2.6
#
DISCID=d50d5d0f
DTITLE=Bobby Womack - The best of the early years CD 1
DYEAR=1900
DGENRE=
TTITLE0=What is this
TTITLE1=Fly me to the moon
TTITLE2=California dreamin'
TTITLE3=I'm in love
TTITLE4=I left my heart in San Francisco
TTITLE5=It's gonna rain
TTITLE6=How I miss you baby
TTITLE7=More than I can stand - Medley live
TTITLE8=I'm a midnight mover
TTITLE9=The Preacher
TTITLE10=Communication
TTITLE11=Fire and rain
TTITLE12=They long to be close to you
TTITLE13=That's the way I feel about cha
TTITLE14=Woman's gotta have it
EXTD=
EXTT0=
EXTT1=
EXTT2=
EXTT3=
EXTT4=
EXTT5=
EXTT6=
EXTT7=
EXTT8=
EXTT9=
EXTT10=
EXTT11=
EXTT12=
EXTT13=
EXTT14=
PLAYORDER=
